<svg width="106" height="116" viewBox="0 0 106 116" fill="none" xmlns="http://www.w3.org/2000/svg">
<path d="M33.2512 67.5213L34.2183 65.9283C36.8917 61.5247 39.3851 58.235 41.6987 56.059C44.0381 53.8988 46.3998 52.4611 48.7838 51.7459C51.1834 51.0048 53.8075 50.5949 56.6558 50.5161C58.9168 50.4707 61.0042 50.3022 62.9182 50.0107C64.8739 49.7091 66.6047 49.1646 68.1107 48.3772C69.6167 47.5899 70.8494 46.4062 71.8086 44.8261C72.7364 43.2978 73.1915 41.7307 73.1738 40.1247C73.1562 38.5187 72.7014 37.0197 71.8096 35.6274C70.9594 34.225 69.7701 33.0599 68.2418 32.1321C66.7135 31.2043 65.0636 30.6812 63.292 30.5629C61.5464 30.4603 59.853 30.7971 58.2119 31.5733C56.6125 32.3394 55.2494 33.6212 54.1227 35.4187L36.2494 24.5681C39.6294 19.1756 43.5905 15.4829 48.1326 13.49C52.7007 11.5129 57.5084 10.922 62.5557 11.7174C67.6188 12.4868 72.5853 14.3497 77.4551 17.3061C82.7912 20.5456 87.0283 24.2522 90.1664 28.4261C93.3304 32.6157 95.1211 37.0529 95.5386 41.7375C95.956 46.4222 94.7415 51.1088 91.8952 55.7973C90.0239 58.8798 87.8547 61.2851 85.3875 63.0133C82.9204 64.7415 80.2039 65.9461 77.2381 66.6271C74.3139 67.2979 71.1602 67.6168 67.7772 67.5836C65.1425 67.544 62.8002 67.7527 60.7502 68.2098C58.7261 68.6826 56.9028 69.5254 55.2802 70.7383C53.6734 71.9253 52.1702 73.6714 50.7706 75.9768L49.8035 77.5699L33.2512 67.5213ZM26.3644 98.2232C23.5668 96.5249 21.7683 94.0859 20.9689 90.9064C20.1954 87.7426 20.6707 84.7698 22.395 81.988C24.036 79.2265 26.4305 77.472 29.5786 76.7243C32.7682 75.9665 35.7619 76.4368 38.5594 78.1352C41.2275 79.7549 42.9742 82.1624 43.7995 85.3576C44.6406 88.5269 44.2406 91.4924 42.5996 94.2538C41.4415 96.1032 39.9193 97.501 38.033 98.4475C36.1727 99.4097 34.2032 99.8802 32.1245 99.859C30.0717 99.8535 28.1517 99.3083 26.3644 98.2232Z" fill="url(#paint0_linear_38_3)"/>
<defs>
<linearGradient id="paint0_linear_38_3" x1="155.789" y1="-54.9347" x2="49.4857" y2="85.0957" gradientUnits="userSpaceOnUse">
<stop stop-color="#FFC633"/>
<stop offset="0.333333" stop-color="#FFC633"/>
<stop offset="0.666667" stop-color="#FFB800"/>
<stop offset="1" stop-color="#FDCD31"/>
</linearGradient>
</defs>
</svg>
